# Blender v2.78 (sub 0) OBJ File: ''
# www.blender.org
mtllib testobj.mtl
o Cube
v 1.000000 -1.000000 -1.000000
v 1.000000 -1.000000 1.000000
v -1.000000 -1.000000 1.000000
v -1.000000 -1.000000 -1.000000
v 1.000000 1.000000 -2.144674
v 0.999999 1.000000 1.000001
v -1.575094 0.965246 0.715137
v -0.242761 0.993974 -1.848129
vt 0.9989 0.7821
vt 0.6951 0.4783
vt 0.6951 0.7821
vt 0.2026 0.4328
vt 0.3914 0.0002
vt 0.3914 0.4779
vt 0.6956 0.3040
vt 0.3918 0.0002
vt 0.6956 0.0002
vt 0.6947 0.7821
vt 0.3909 0.4783
vt 0.6947 0.4783
vt 0.0046 0.5216
vt 0.3031 0.7821
vt 0.3031 0.4783
vt 0.9998 0.3040
vt 0.6969 0.1152
vt 0.6960 0.3040
vt 0.9989 0.4783
vt 0.0002 0.0435
vt 0.3918 0.4779
vt 0.3035 0.7768
vt 0.0002 0.9109
vt 0.9998 0.0002
vn 0.0000 -1.0000 0.0000
vn -0.0048 1.0000 0.0000
vn 1.0000 0.0000 0.0000
vn 0.0000 -0.0000 1.0000
vn -0.9598 -0.2809 -0.0000
vn -0.2005 -0.4866 -0.8503
vn -0.0139 0.9999 0.0040
vn -0.1108 0.1108 0.9877
vn -0.8792 0.1402 -0.4554
vn 0.0000 -0.3914 -0.9202
usemtl Material
s off
f 2/1/1 4/2/1 1/3/1
f 8/4/2 6/5/2 5/6/2
f 1/7/3 6/8/3 2/9/3
f 6/10/4 3/11/4 2/12/4
f 7/13/5 4/14/5 3/15/5
f 1/16/6 8/17/6 5/18/6
f 2/1/1 3/19/1 4/2/1
f 8/4/7 7/20/7 6/5/7
f 1/7/3 5/21/3 6/8/3
f 6/10/8 7/22/8 3/11/8
f 7/13/9 8/23/9 4/14/9
f 1/16/10 4/24/10 8/17/10
